<?xml version="1.0" standalone="no"?>
<!DOCTYPE svg PUBLIC "-//W3C//DTD SVG 20010904//EN"
 "http://www.w3.org/TR/2001/REC-SVG-20010904/DTD/svg10.dtd">
<svg version="1.0"
    xmlns="http://www.w3.org/2000/svg" width="inherit" height="inherit" viewBox="0 0 473.000000 527.000000" preserveAspectRatio="xMidYMid meet">
    <g transform="translate(0.000000,527.000000) scale(0.100000,-0.100000)" fill="#1e2188" stroke="none">
        <path d="M110 4905 l0 -275 280 0 280 0 0 275 0 275 -280 0 -280 0 0 -275z"/>
        <path d="M890 4905 l0 -275 280 0 280 0 0 275 0 275 -280 0 -280 0 0 -275z"/>
        <path d="M1680 4905 l0 -275 280 0 280 0 0 275 0 275 -280 0 -280 0 0 -275z"/>
        <path d="M2460 3365 l0 -1815 280 0 280 0 0 1815 0 1815 -280 0 -280 0 0
-1815z"/>
        <path d="M3240 3260 l0 -1920 -780 0 -780 0 0 -275 0 -275 1060 0 1060 0 0
2195 0 2195 -280 0 -280 0 0 -1920z"/>
        <path d="M4020 2985 l0 -2195 280 0 280 0 0 2195 0 2195 -280 0 -280 0 0
-2195z"/>
        <path d="M110 3750 l0 -660 1065 0 1065 0 0 660 0 660 -280 0 -280 0 0 -385 0
-385 -115 0 -115 0 0 385 0 385 -670 0 -670 0 0 -660z m780 0 l0 -110 -110 0
-110 0 0 110 0 110 110 0 110 0 0 -110z"/>
        <path d="M110 1830 l0 -1040 670 0 670 0 0 380 0 380 395 0 395 0 0 660 0 660
-675 0 -675 0 0 -765 0 -765 -110 0 -110 0 0 765 0 765 -280 0 -280 0 0 -1040z
m1570 385 l0 -105 -115 0 -115 0 0 105 0 105 115 0 115 0 0 -105z"/>
        <path d="M290 570 c0 -5 5 -10 10 -10 16 0 12 -25 -15 -77 -13 -26 -54 -110
-90 -185 -36 -76 -70 -138 -75 -138 -6 0 -10 -4 -10 -10 0 -6 32 -10 76 -10
69 0 75 1 69 19 -3 10 2 37 11 60 l16 41 88 0 88 0 21 -34 c22 -36 27 -66 11
-66 -5 0 -10 -4 -10 -10 0 -6 35 -10 85 -10 77 0 106 9 73 23 -7 3 -21 22 -32
43 -10 22 -23 48 -29 59 -84 156 -137 273 -132 293 5 21 3 22 -75 22 -47 0
-80 -4 -80 -10z m122 -195 c3 -11 9 -28 13 -37 6 -16 0 -18 -54 -18 l-62 0 20
38 c11 20 24 50 31 66 l11 29 18 -29 c10 -16 20 -38 23 -49z"/>
        <path d="M695 360 l0 -220 192 0 c117 0 194 -4 198 -10 15 -24 25 -6 25 45 0
51 -10 69 -25 45 -4 -6 -60 -10 -136 -10 l-130 0 3 185 3 185 -65 0 -65 0 0
-220z"/>
        <path d="M1490 570 c0 -5 5 -10 10 -10 25 0 7 -46 -101 -263 -27 -54 -49 -105
-49 -113 0 -9 -9 -18 -20 -21 -45 -12 -15 -23 60 -23 72 0 102 10 68 23 -10 3
-9 12 5 37 9 17 17 38 17 46 0 11 20 14 95 14 l94 0 21 -46 c24 -56 24 -54 5
-54 -8 0 -15 -4 -15 -10 0 -6 37 -10 90 -10 84 0 117 11 70 23 -11 3 -20 12
-20 21 0 9 -10 33 -23 54 -12 20 -51 94 -86 165 -47 94 -61 134 -57 152 l6 25
-85 0 c-50 0 -85 -4 -85 -10z m126 -196 c13 -24 24 -45 24 -48 0 -3 -27 -6
-60 -6 l-60 0 17 43 c9 23 24 53 32 66 14 22 16 23 19 7 2 -11 15 -38 28 -62z"/>
        <path d="M1880 571 c0 -6 5 -13 10 -16 14 -8 14 -395 0 -395 -5 0 -10 -4 -10
-10 0 -6 32 -10 75 -10 41 0 75 4 75 9 0 5 -5 11 -10 13 -7 2 -10 49 -8 128
l3 125 63 -127 c34 -70 67 -130 73 -133 13 -8 39 13 39 31 0 8 11 32 25 54 14
22 25 44 25 50 0 6 11 27 24 48 13 21 26 47 29 58 3 10 5 -43 4 -119 l-2 -137
65 0 65 0 0 220 0 220 -83 0 c-77 0 -83 -1 -77 -19 5 -17 -67 -172 -97 -208
-8 -10 -23 13 -64 92 -29 58 -51 112 -48 120 5 13 -8 15 -85 15 -50 0 -91 -4
-91 -9z"/>
        <path d="M2677 546 c4 -25 -1 -43 -21 -74 -14 -23 -26 -46 -26 -51 0 -5 -20
-49 -43 -98 -24 -48 -51 -105 -60 -126 -9 -20 -21 -37 -27 -37 -5 0 -10 -4
-10 -10 0 -6 32 -10 75 -10 67 0 97 11 63 23 -10 3 -6 17 12 51 l25 46 86 0
c79 0 88 -2 101 -22 20 -31 31 -78 18 -78 -5 0 -10 -4 -10 -10 0 -6 35 -10 85
-10 50 0 85 4 85 10 0 6 -6 10 -12 10 -7 0 -28 31 -46 68 -18 37 -41 83 -51
102 -66 121 -103 209 -96 229 6 20 3 21 -74 21 l-80 0 6 -34z m115 -179 c10
-21 18 -40 18 -42 0 -3 -27 -5 -59 -5 l-59 0 17 43 c9 23 23 53 30 67 l14 25
10 -25 c6 -14 18 -42 29 -63z"/>
        <path d="M3065 360 l0 -220 65 0 65 0 -3 137 -3 138 76 -80 c41 -44 75 -82 75
-84 0 -2 16 -19 35 -38 26 -25 34 -40 30 -54 -6 -18 -1 -19 74 -19 47 0 81 4
81 10 0 6 -4 10 -10 10 -14 0 -14 387 0 395 26 16 3 25 -65 25 -68 0 -91 -9
-65 -25 6 -4 10 -58 10 -131 l0 -124 -56 63 c-31 34 -65 69 -75 79 -11 9 -19
19 -19 23 0 3 -16 22 -35 42 -24 25 -33 42 -29 55 5 16 -2 18 -73 18 l-78 0 0
-220z"/>
        <path d="M3780 570 c0 -5 5 -10 10 -10 14 0 12 -28 -4 -58 -8 -15 -49 -98 -90
-185 -42 -86 -81 -157 -86 -157 -6 0 -10 -4 -10 -10 0 -6 33 -10 80 -10 44 0
80 4 80 9 0 5 -5 11 -12 13 -8 3 -6 18 7 51 l18 47 88 0 88 0 26 -43 c29 -51
30 -57 10 -57 -8 0 -15 -4 -15 -10 0 -6 35 -10 85 -10 50 0 85 4 85 10 0 6 -5
10 -11 10 -5 0 -19 21 -31 48 -11 26 -29 59 -39 74 -11 14 -19 31 -19 37 0 6
-11 29 -25 51 -14 22 -25 44 -25 50 0 6 -11 28 -25 50 -14 23 -25 54 -25 75
l0 35 -80 0 c-47 0 -80 -4 -80 -10z m128 -209 c7 -19 12 -36 12 -37 0 -2 -27
-4 -60 -4 l-59 0 23 44 c13 24 26 54 29 67 l7 24 18 -30 c10 -16 24 -45 30
-64z"/>
        <path d="M4185 360 l0 -220 65 0 65 0 -3 95 -4 95 116 0 116 0 0 -85 c0 -50
-4 -85 -10 -85 -5 0 -10 -4 -10 -10 0 -6 32 -10 75 -10 43 0 75 4 75 10 0 6
-4 10 -10 10 -14 0 -14 387 0 395 26 16 3 25 -65 25 -68 0 -91 -9 -65 -25 6
-3 10 -40 10 -81 l0 -74 -116 0 -116 0 4 90 4 90 -65 0 -66 0 0 -220z"/>
        <path d="M1140 323 l0 -48 80 0 80 0 0 41 0 40 -61 -4 c-37 -3 -65 0 -72 7
-20 20 -27 11 -27 -36z"/>
    </g>
</svg>
